<?xml version="1.0" standalone="no"?>
<!DOCTYPE svg PUBLIC "-//W3C//DTD SVG 20010904//EN"
 "http://www.w3.org/TR/2001/REC-SVG-20010904/DTD/svg10.dtd">
<svg version="1.0" xmlns="http://www.w3.org/2000/svg"
 width="900.000000pt" height="900.000000pt" viewBox="0 0 900.000000 900.000000"
 preserveAspectRatio="xMidYMid meet">
<metadata>
Created by potrace 1.14, written by Peter Selinger 2001-2017
</metadata>
<g transform="translate(0.000000,900.000000) scale(0.100000,-0.100000)"
fill="#000000" stroke="none">
<path d="M0 4500 l0 -4500 4500 0 4500 0 0 4500 0 4500 -4500 0 -4500 0 0
-4500z m4022 3180 c20 -58 152 -431 293 -830 141 -399 285 -806 320 -905 35
-99 111 -315 170 -480 59 -165 122 -343 140 -395 18 -52 61 -171 95 -265 52
-143 262 -735 487 -1375 30 -85 103 -292 163 -460 59 -168 158 -447 220 -620
247 -697 293 -826 301 -840 14 -23 -2 39 -21 85 -9 22 -23 72 -30 110 -8 39
-21 79 -29 89 -13 16 -14 18 -1 11 12 -7 13 -6 3 7 -7 8 -10 18 -7 21 4 3 -1
22 -10 42 -10 20 -20 52 -23 71 -3 20 -12 38 -19 41 -8 3 -14 9 -14 15 0 5 4
7 9 4 10 -6 -4 44 -21 77 -5 11 -7 21 -4 24 3 3 -1 18 -10 34 -8 16 -12 29 -9
29 4 0 3 6 -2 13 -4 6 -8 22 -9 35 0 12 -5 26 -9 30 -5 4 -5 -1 -2 -11 4 -11
3 -16 -4 -12 -5 4 -7 15 -4 26 4 11 0 25 -9 34 -8 9 -13 22 -10 30 4 8 3 23
-1 33 -4 9 -9 24 -11 32 -2 8 -10 40 -19 70 -10 30 -17 63 -17 73 1 10 -4 15
-10 11 -8 -5 -9 -1 -5 10 4 10 -1 44 -12 75 -11 31 -25 77 -32 104 -8 26 -16
47 -20 47 -6 0 -10 13 -25 103 -3 21 -12 41 -19 43 -7 3 -10 16 -7 31 3 15 1
23 -4 20 -9 -5 -13 11 -15 60 -1 13 -6 20 -12 16 -6 -4 -8 2 -5 15 3 12 1 23
-5 25 -6 2 -12 16 -13 33 -5 63 -16 110 -30 125 -8 8 -14 23 -14 32 0 9 -4 18
-10 22 -5 3 -6 13 -3 22 4 11 3 14 -5 9 -8 -4 -10 -2 -6 7 3 8 1 18 -4 21 -6
3 -8 16 -4 28 3 12 1 19 -5 15 -5 -3 -8 5 -5 21 2 16 -7 51 -21 82 -14 30 -22
56 -17 58 4 2 5 12 3 23 -5 16 -8 18 -15 7 -7 -9 -8 -7 -5 9 3 13 1 25 -3 28
-4 3 -6 13 -3 24 2 10 -2 24 -10 32 -7 8 -12 20 -9 28 3 8 0 11 -5 8 -5 -3
-10 3 -10 14 -1 11 2 17 7 14 4 -3 6 4 3 15 -3 11 -9 18 -13 15 -14 -8 -21 27
-9 42 10 11 7 18 -9 34 -12 11 -22 25 -22 32 0 7 4 6 10 -3 15 -24 12 -4 -7
34 -9 19 -21 32 -26 29 -5 -3 -5 2 1 13 11 20 -2 59 -18 49 -4 -3 -6 4 -3 15
3 11 1 26 -5 33 -9 12 -25 66 -28 97 0 8 -2 23 -3 33 0 10 -5 16 -10 13 -5 -3
-9 0 -8 7 1 42 -4 59 -17 54 -18 -7 -15 15 4 39 14 17 13 18 -1 6 -20 -15 -29
1 -29 49 0 17 -5 29 -13 29 -9 0 -12 9 -9 29 2 16 -1 32 -7 35 -7 5 -9 0 -5
-11 5 -15 4 -15 -4 -3 -6 8 -8 18 -5 23 8 13 -6 59 -16 52 -5 -3 -7 4 -4 15 6
22 -14 80 -27 80 -5 0 -10 -5 -12 -12 -2 -6 -2 20 0 58 2 38 1 66 -3 62 -10
-9 -35 16 -35 36 0 8 -4 18 -10 21 -5 3 -10 15 -10 26 0 11 4 18 8 15 5 -3 6
8 4 25 -2 16 -10 29 -18 29 -9 0 -14 11 -14 30 0 17 -4 30 -10 30 -5 0 -7 -7
-4 -15 4 -8 1 -15 -5 -15 -12 0 -13 6 -5 37 4 13 11 20 16 16 6 -3 8 0 6 8 -3
8 -12 13 -22 11 -12 -2 -16 5 -16 28 0 17 -7 47 -15 68 -13 30 -18 34 -26 22
-7 -11 -9 -5 -5 20 3 19 3 29 0 22 -3 -6 -10 -9 -15 -6 -6 3 -5 11 2 20 9 11
9 14 -1 14 -8 0 -11 12 -8 35 5 40 1 45 -11 13 -8 -21 -8 -21 -13 5 -3 15 -2
27 3 27 12 0 -15 83 -28 87 -7 3 -10 -3 -7 -14 2 -10 0 -52 -4 -93 -6 -47 -10
414 -11 1248 l-1 1322 645 0 645 0 0 -3285 0 -3284 -27 4 c-173 30 -809 87
-1157 103 l-149 7 -103 290 c-56 160 -155 439 -219 620 -64 182 -155 438 -202
570 -46 132 -125 355 -175 495 -50 140 -170 480 -268 755 -98 275 -260 732
-360 1015 -100 283 -243 686 -317 895 -74 209 -161 454 -193 545 -305 864
-349 983 -350 964 0 -10 14 -60 28 -94 3 -8 7 -28 9 -44 2 -16 8 -35 14 -43 7
-7 9 -16 6 -19 -6 -6 12 -66 23 -74 7 -6 40 -140 40 -165 0 -9 4 -14 9 -11 5
3 11 -11 14 -32 11 -68 18 -94 33 -124 12 -23 12 -28 2 -22 -7 5 -5 -4 6 -20
10 -16 20 -43 21 -60 2 -17 11 -51 20 -76 18 -50 25 -80 30 -126 1 -17 9 -42
16 -55 7 -13 12 -28 11 -32 -1 -4 7 -26 18 -49 12 -25 17 -50 14 -62 -6 -19
-5 -20 11 -6 17 14 17 13 7 -7 -15 -28 -15 -28 5 -49 11 -10 16 -29 14 -46 -1
-15 2 -28 8 -28 6 0 7 -7 4 -17 -4 -11 -3 -14 5 -9 8 5 10 2 6 -9 -4 -9 -2
-26 4 -38 11 -23 19 -56 29 -117 5 -28 7 -31 13 -15 6 17 7 16 12 -7 3 -15 1
-25 -3 -22 -5 3 -9 0 -9 -5 0 -6 5 -11 11 -11 5 0 7 -4 4 -10 -3 -5 -1 -10 4
-10 6 0 10 -10 9 -22 -1 -28 4 -51 15 -59 8 -6 16 -34 23 -83 2 -17 7 -32 12
-35 4 -3 8 -19 10 -36 6 -64 19 -98 35 -88 6 4 8 -3 3 -21 -4 -15 -3 -25 1
-23 8 5 10 -3 16 -57 1 -13 5 -22 8 -20 4 2 10 -3 13 -12 10 -25 7 -36 -6 -28
-7 4 -5 -2 5 -13 9 -11 17 -31 17 -46 0 -19 4 -25 15 -21 10 4 15 0 15 -11 0
-9 -4 -13 -10 -10 -5 3 -10 -3 -10 -14 0 -10 5 -21 11 -23 7 -2 13 -22 15 -43
1 -22 3 -42 4 -45 0 -3 5 2 11 10 9 13 10 12 5 -2 -3 -9 2 -31 10 -47 9 -17
12 -35 9 -41 -8 -13 16 -110 27 -110 4 0 8 -8 8 -18 0 -10 6 -24 13 -31 6 -8
7 -11 1 -8 -8 4 -8 -4 0 -29 l11 -35 7 33 c5 22 5 15 2 -19 -3 -36 0 -55 10
-66 14 -14 22 -38 70 -217 12 -47 32 -102 44 -123 12 -21 22 -53 22 -73 0 -19
4 -33 9 -30 4 3 14 -14 21 -37 8 -23 17 -46 22 -52 4 -5 8 -18 8 -30 0 -16 -2
-17 -10 -5 -13 19 -1 -48 12 -70 6 -10 7 -3 3 20 l-6 35 16 -34 c8 -18 15 -40
15 -48 0 -8 4 -12 8 -9 5 3 6 -8 4 -24 -3 -19 6 -46 26 -82 19 -34 30 -69 31
-97 1 -49 19 -81 32 -59 6 8 9 1 9 -21 0 -37 19 -111 32 -126 4 -5 8 -27 8
-49 0 -36 1 -38 13 -21 13 17 14 17 20 -4 3 -13 0 -21 -8 -21 -8 0 -11 -9 -7
-25 2 -14 8 -22 13 -19 5 3 10 -3 11 -13 1 -10 5 20 8 67 3 47 7 -473 8 -1156
l2 -1241 -157 -7 c-278 -12 -798 -57 -1003 -86 -36 -5 -80 -10 -97 -10 l-33 0
0 3285 0 3285 648 -2 647 -3 37 -105z m1005 -2592 c-3 -8 -6 -5 -6 6 -1 11 2
17 5 13 3 -3 4 -12 1 -19z m-1394 -388 c3 -11 1 -18 -4 -14 -5 3 -9 12 -9 20
0 20 7 17 13 -6z m1637 -48 c0 -15 -2 -15 -10 -2 -13 20 -13 33 0 25 6 -3 10
-14 10 -23z m-1621 -32 c11 -24 11 -24 -3 -6 -9 11 -16 24 -16 30 0 12 5 7 19
-24z m328 -787 c-3 -10 -5 -2 -5 17 0 19 2 27 5 18 2 -10 2 -26 0 -35z"/>
<path d="M2766 7540 c3 -14 11 -32 16 -40 6 -10 7 -7 2 10 -3 14 -11 32 -16
40 -6 10 -7 7 -2 -10z"/>
<path d="M5031 5344 c0 -11 3 -14 6 -6 3 7 2 16 -1 19 -3 4 -6 -2 -5 -13z"/>
</g>
</svg>
